<?xml version="1.0" standalone="no"?>
<!DOCTYPE svg PUBLIC "-//W3C//DTD SVG 20010904//EN"
 "http://www.w3.org/TR/2001/REC-SVG-20010904/DTD/svg10.dtd">
<svg version="1.0" xmlns="http://www.w3.org/2000/svg"
 width="300.000000pt" height="300.000000pt" viewBox="0 0 300.000000 300.000000"
 preserveAspectRatio="xMidYMid meet">
<metadata>
Created by potrace 1.10, written by Peter Selinger 2001-2011
</metadata>
<g transform="translate(0.000000,300.000000) scale(0.100000,-0.100000)"
fill="#000000" stroke="none">
<path d="M2290 2655 c-20 -25 -291 -225 -895 -663 -313 -227 -581 -422 -595
-432 l-25 -19 31 0 c35 -1 510 -68 534 -76 16 -5 43 -8 170 -20 41 -3 81 -8
88 -11 7 -2 -48 -72 -130 -167 -79 -90 -216 -247 -306 -350 -147 -168 -202
-223 -202 -200 0 4 -5 1 -10 -7 -7 -11 -12 -12 -21 -3 -8 8 -8 15 0 25 20 23
96 131 136 193 22 33 42 62 45 65 3 3 16 21 27 40 12 19 30 44 40 55 11 11 46
61 78 110 32 50 69 101 81 113 13 13 29 37 36 53 7 16 15 29 18 29 3 0 6 9 7
21 1 12 -3 19 -10 16 -7 -2 -137 -181 -289 -398 -153 -217 -300 -424 -328
-462 -28 -37 -48 -67 -45 -67 3 0 55 39 114 88 60 48 189 145 287 216 888 644
1125 816 1119 816 -44 0 -513 74 -540 86 -25 10 -34 11 -29 3 5 -8 0 -10 -17
-6 -13 3 -73 11 -132 18 l-108 12 24 26 c13 14 127 145 252 291 255 297 354
402 372 396 6 -3 17 2 24 10 8 10 16 11 22 5 6 -6 2 -20 -14 -39 -13 -16 -31
-39 -39 -52 -8 -12 -20 -28 -25 -34 -16 -17 -108 -147 -128 -181 -10 -16 -24
-34 -31 -40 -7 -5 -37 -46 -66 -90 -30 -44 -58 -84 -62 -90 -101 -125 -137
-201 -98 -212 9 -3 11 -1 4 4 -7 5 40 79 137 213 82 113 190 263 241 334 51
71 137 190 190 263 54 73 94 133 89 133 -5 0 -14 -7 -21 -15z m-496 -447 c-11
-13 -49 -57 -85 -98 -35 -41 -68 -79 -74 -86 -5 -6 -32 -37 -60 -69 -27 -32
-65 -75 -83 -94 -18 -20 -44 -53 -59 -74 -31 -45 -25 -66 25 -82 38 -11 37
-25 -3 -38 -34 -12 -65 -37 -65 -54 0 -7 9 -22 20 -33 25 -25 25 -42 2 -64
-18 -15 -34 -14 -257 19 -132 20 -241 37 -243 40 -11 11 -7 14 696 522 177
128 228 158 186 111z m-164 -529 c-8 -6 -39 -24 -69 -41 l-54 -30 61 -27 c34
-14 62 -28 62 -31 0 -6 -233 -80 -238 -76 -1 2 27 21 64 41 l67 38 -64 29 -64
30 115 38 c120 39 145 46 120 29z m73 -20 c23 -5 125 -22 227 -37 124 -18 185
-31 185 -39 0 -11 -841 -628 -872 -640 -23 -9 -14 11 25 52 20 22 62 70 92
105 30 36 67 78 81 95 162 186 179 207 179 221 0 17 -28 44 -45 44 -27 0 -26
20 2 32 64 29 79 61 43 93 -25 23 -25 33 2 62 25 26 25 27 81 12z"/>
</g>
</svg>
