<svg width="95" height="97" viewBox="0 0 95 97" fill="none" xmlns="http://www.w3.org/2000/svg">
<path d="M79.49 7.49426C78.8193 8.31803 69.7317 14.9082 49.4775 29.3406C38.9815 36.8205 29.9945 43.2459 29.525 43.5754L28.6867 44.2015H29.7262C30.8999 44.2344 46.8283 46.4421 47.6331 46.7057C48.1696 46.8705 49.0751 46.9693 53.3338 47.3647C54.7087 47.4636 56.05 47.6284 56.2848 47.7272C56.5195 47.7931 54.6752 50.0997 51.9254 53.23C49.2763 56.1956 44.6822 61.3688 41.6641 64.7628C36.7347 70.2985 34.8904 72.1108 34.8904 71.3529C34.8904 71.2211 34.7227 71.32 34.555 71.5836C34.3203 71.9461 34.1526 71.979 33.8508 71.6824C33.5826 71.4188 33.5826 71.1882 33.8508 70.8587C34.5215 70.1008 37.07 66.5421 38.4114 64.4992C39.1491 63.4118 39.8198 62.4562 39.9204 62.3574C40.021 62.2585 40.4569 61.6654 40.8258 61.0393C41.2282 60.4133 41.8318 59.5895 42.1671 59.227C42.536 58.8646 43.7097 57.217 44.7828 55.6024C45.8558 53.9549 47.0966 52.2744 47.499 51.879C47.9349 51.4506 48.4715 50.6598 48.7062 50.1326C48.9409 49.6054 49.2092 49.177 49.3098 49.177C49.4104 49.177 49.511 48.8805 49.5445 48.4851C49.5781 48.0897 49.4439 47.859 49.2092 47.9579C48.9745 48.0238 44.6151 53.922 39.518 61.0723C34.3874 68.2226 29.4579 75.0434 28.519 76.2956C27.5801 77.5147 26.9094 78.5033 27.01 78.5033C27.1106 78.5033 28.8543 77.2182 30.8328 75.6036C32.8448 74.022 37.1706 70.8257 40.4569 68.4862C70.2347 47.2659 78.1822 41.5984 77.981 41.5984C76.5055 41.5984 60.7783 39.16 59.8729 38.7646C59.0345 38.4351 58.7327 38.4021 58.9004 38.6657C59.068 38.9293 58.9004 38.9952 58.3303 38.8634C57.8944 38.7646 55.8824 38.501 53.9039 38.2703L50.2823 37.8749L51.0871 37.0182C51.523 36.5569 55.3458 32.2403 59.5375 27.4295C68.0886 17.6431 71.4084 14.1833 72.012 14.381C72.2132 14.4798 72.5821 14.3151 72.8168 14.0515C73.0851 13.722 73.3533 13.689 73.5545 13.8867C73.7557 14.0844 73.6216 14.5457 73.0851 15.1718C72.6491 15.699 72.0455 16.4569 71.7773 16.8852C71.509 17.2807 71.1066 17.8079 70.9389 18.0056C70.4024 18.5657 67.3173 22.8493 66.6466 23.9697C66.3113 24.4969 65.8418 25.09 65.6071 25.2877C65.3724 25.4525 64.3663 26.8034 63.3939 28.2533C62.3879 29.7031 61.4489 31.0211 61.3148 31.2188C57.9279 35.3377 56.7207 37.842 58.0285 38.2044C58.3303 38.3033 58.3974 38.2374 58.1626 38.0726C57.9279 37.9079 59.504 35.4695 62.7567 31.0541C65.5065 27.3306 69.1281 22.388 70.8383 20.0485C72.5485 17.709 75.4324 13.7879 77.2097 11.3825C79.0205 8.97705 80.3618 7 80.1942 7C80.0265 7 79.7247 7.23065 79.49 7.49426ZM62.8573 22.2233C62.4885 22.6516 61.2142 24.1015 60.007 25.4525C58.8333 26.8034 57.7267 28.0556 57.5255 28.2862C57.3578 28.4839 56.4524 29.5054 55.5135 30.5598C54.6081 31.6143 53.3338 33.0311 52.7302 33.6572C52.1266 34.3162 51.2547 35.4036 50.7517 36.0956C49.7122 37.5784 49.9134 38.2703 51.5901 38.7975C52.8643 39.16 52.8308 39.6213 51.4895 40.0497C50.3493 40.4451 49.3098 41.2688 49.3098 41.829C49.3098 42.0597 49.6116 42.5539 49.9805 42.9164C50.8188 43.7402 50.8188 44.3003 50.0475 45.0252C49.4439 45.5195 48.9074 45.4865 41.4294 44.3992C37.003 43.7402 33.3478 43.18 33.2808 43.0811C32.9119 42.7187 33.046 42.6198 56.6201 25.8808C62.5555 21.6631 64.2657 20.6746 62.8573 22.2233ZM57.3578 39.6543C57.0896 39.852 56.05 40.4451 55.044 41.0052L53.2332 41.9938L55.2788 42.8834C56.4189 43.3447 57.3578 43.8061 57.3578 43.9049C57.3578 44.1026 49.5445 46.541 49.3769 46.4092C49.3433 46.3433 50.2823 45.7172 51.523 45.0582L53.7698 43.8061L51.6236 42.8505L49.4775 41.862L53.3338 40.6098C57.3578 39.3247 58.1962 39.0941 57.3578 39.6543ZM59.8058 40.3133C60.5771 40.478 63.9975 41.0382 67.4179 41.5325C71.5761 42.1256 73.6216 42.5539 73.6216 42.8175C73.6216 43.18 45.4199 63.5106 44.3804 63.9061C43.6091 64.2026 43.9109 63.5436 45.2187 62.1926C45.8894 61.4677 47.2978 59.8861 48.3038 58.7328C49.3098 57.5465 50.5505 56.1626 51.02 55.6024C56.4524 49.4736 57.0225 48.7816 57.0225 48.3203C57.0225 47.7602 56.0836 46.8705 55.5135 46.8705C54.6081 46.8705 54.6416 46.2115 55.5806 45.8161C57.7267 44.8605 58.2297 43.8061 57.0225 42.7516C56.1842 41.9938 56.1842 41.6643 57.0896 40.7087C57.9279 39.852 57.9279 39.819 59.8058 40.3133Z" fill="#E7E4EC"/>
<path d="M79.3805 3.82205C78.7134 4.63168 69.7951 11.0146 49.9247 24.9844C39.6276 32.2245 30.8103 38.4446 30.3499 38.7634L29.5267 39.3704L30.527 39.3967C31.6555 39.4594 46.9249 42.077 47.6924 42.3618C48.2044 42.5407 49.073 42.6628 53.1607 43.1671C54.4811 43.3011 55.7675 43.5003 55.9908 43.6054C56.2149 43.6774 54.3794 45.9452 51.6509 49.0167C49.0236 51.9254 44.4665 57.0002 41.4729 60.3294C36.5836 65.7594 34.7611 67.5313 34.7811 66.7708C34.7846 66.6386 34.6206 66.7335 34.4523 66.9938C34.2169 67.3516 34.0547 67.3804 33.7721 67.0752C33.5209 66.8039 33.5269 66.5725 33.7938 66.2486C34.4591 65.5051 37.0053 61.9987 38.3498 59.9827C39.0884 58.9103 39.7589 57.9684 39.8583 57.8718C39.9577 57.7751 40.3929 57.191 40.7643 56.5722C41.168 55.9541 41.7706 55.1428 42.1028 54.7876C42.4673 54.4332 43.6401 52.8097 44.7152 51.2168C45.7912 49.5907 47.0294 47.9359 47.4271 47.5493C47.8578 47.1305 48.395 46.3506 48.6347 45.8275C48.8745 45.3044 49.1439 44.8814 49.2408 44.8839C49.3376 44.8865 49.4422 44.5914 49.4849 44.1955C49.5275 43.7996 49.4045 43.5648 49.1761 43.6581C48.9484 43.7182 44.5982 49.5263 39.505 56.5722C34.3795 63.6172 29.4564 70.3366 28.5199 71.5693C27.5842 72.7689 26.9128 73.7438 27.0096 73.7463C27.1064 73.7489 28.8182 72.5035 30.7646 70.9334C32.7424 69.3972 36.9892 66.2994 40.2132 64.035C69.4267 43.4949 77.2236 38.0089 77.03 38.0039C75.6102 37.9666 60.5405 35.1226 59.6796 34.703C58.8816 34.3512 58.5921 34.3105 58.7465 34.5792C58.9009 34.8479 58.7378 34.9098 58.1927 34.7632C57.7758 34.653 55.8466 34.3376 53.9489 34.0562L50.4743 33.568L51.2713 32.7287C51.7029 32.2768 55.4953 28.0422 59.6556 23.3209C68.1419 13.7173 71.4276 10.3296 72.0032 10.5432C72.1942 10.6475 72.5535 10.4915 72.7863 10.2329C73.0532 9.90909 73.3122 9.88281 73.5006 10.0863C73.689 10.2897 73.5478 10.7492 73.015 11.3639C72.5816 11.8818 71.9808 12.627 71.7114 13.0501C71.4428 13.44 71.0417 13.9589 70.8751 14.153C70.3441 14.7015 67.2625 18.9217 66.5876 20.0289C66.2511 20.5495 65.7837 21.1327 65.5526 21.3252C65.3224 21.4846 64.3187 22.8147 63.3447 24.2449C62.3385 25.6743 61.4003 26.973 61.266 27.168C57.8983 31.2153 56.6707 33.6976 57.9196 34.0943C58.2074 34.2011 58.2737 34.1367 58.0522 33.9654C57.8306 33.7942 59.4115 31.3874 62.6579 27.0391C65.402 23.3725 69.0172 18.5046 70.7245 16.2004C72.4318 13.8961 75.3102 10.0345 77.0838 7.66585C78.8897 5.29802 80.2325 3.34814 80.0712 3.34391C79.9098 3.33967 79.6133 3.56348 79.3805 3.82205ZM62.9873 18.1809C62.6211 18.6014 61.3567 20.0239 60.1594 21.349C58.9944 22.6749 57.8966 23.9034 57.6969 24.1297C57.5303 24.3239 56.6322 25.3259 55.7009 26.3602C54.8019 27.3953 53.5383 28.7848 52.941 29.3978C52.3428 30.0438 51.4752 31.1128 50.9729 31.7944C49.9335 33.256 50.1089 33.9554 51.7084 34.5268C52.9251 34.9226 52.8807 35.3847 51.5787 35.7806C50.4711 36.1486 49.4491 36.9489 49.4343 37.5109C49.4283 37.7424 49.7056 38.2459 50.0511 38.6189C50.8361 39.4667 50.8213 40.0288 50.06 40.7366C49.4662 41.2173 48.9508 41.1707 41.7835 39.8907C37.5414 39.1176 34.0389 38.4632 33.977 38.3623C33.6316 37.9893 33.7633 37.8935 56.889 21.6933C62.7116 17.6112 64.3834 16.6625 62.9873 18.1809ZM57.2361 35.5321C56.9727 35.7237 55.9568 36.2926 54.9739 36.8292L53.2054 37.7754L55.1503 38.7197C56.2353 39.2114 57.1267 39.698 57.1241 39.7972C57.1189 39.9956 49.5361 42.2448 49.3782 42.1083C49.3477 42.0414 50.2677 41.4369 51.479 40.807L53.674 39.6074L51.6339 38.5943L49.5948 37.5482L53.3387 36.3893C57.2447 35.2015 58.0575 34.9912 57.2361 35.5321ZM59.5743 36.2552C60.3121 36.44 63.5888 37.0885 66.8671 37.6709C70.8528 38.371 72.8099 38.8525 72.803 39.117C72.7934 39.4807 45.12 59.1679 44.1093 59.5384C43.3593 59.8165 43.667 59.1629 44.9611 57.8403C45.6256 57.1299 47.0225 55.5785 48.021 54.4467C49.0203 53.2818 50.2507 51.9246 50.7172 51.3744C56.1061 45.3619 56.6729 44.682 56.6851 44.2191C56.6998 43.6571 55.8198 42.7407 55.2712 42.7263C54.3999 42.7034 54.4496 42.043 55.3635 41.6699C57.4539 40.7653 57.9657 39.72 56.8318 38.6315C56.045 37.8499 56.0537 37.5193 56.9501 36.5833C57.7794 35.7449 57.7803 35.7118 59.5743 36.2552Z" fill="#2400FF"/>
</svg>
